<?xml version="1.0" standalone="no"?>
<!DOCTYPE svg PUBLIC "-//W3C//DTD SVG 20010904//EN"
 "http://www.w3.org/TR/2001/REC-SVG-20010904/DTD/svg10.dtd">
<svg version="1.0" xmlns="http://www.w3.org/2000/svg"
 width="238.000000pt" height="238.000000pt" viewBox="0 0 238.000000 238.000000"
 preserveAspectRatio="xMidYMid meet">
<metadata>
Created by potrace 1.14, written by Peter Selinger 2001-2017
</metadata>
<g transform="translate(0.000000,238.000000) scale(0.100000,-0.100000)"
fill="#000000" stroke="none">
<path d="M1168 2363 c6 -2 18 -2 25 0 6 3 1 5 -13 5 -14 0 -19 -2 -12 -5z"/>
<path d="M1053 2353 c9 -2 25 -2 35 0 9 3 1 5 -18 5 -19 0 -27 -2 -17 -5z"/>
<path d="M988 2343 c6 -2 18 -2 25 0 6 3 1 5 -13 5 -14 0 -19 -2 -12 -5z"/>
<path d="M948 2333 c7 -3 16 -2 19 1 4 3 -2 6 -13 5 -11 0 -14 -3 -6 -6z"/>
<path d="M1465 2335 c6 -2 29 -9 52 -15 48 -12 48 -14 0 -96 l-30 -51 -84 44
c-80 43 -189 81 -177 62 3 -5 13 -9 21 -9 20 0 133 -68 182 -109 l34 -28 -27
-47 -27 -47 -68 63 c-59 54 -129 99 -203 130 -35 15 -17 -1 32 -28 54 -29 106
-91 160 -186 l32 -58 -23 -37 c-32 -54 -143 -212 -149 -213 -3 0 -27 36 -53
79 -61 99 -182 208 -168 151 22 -93 27 -446 7 -478 -6 -10 -15 -4 -32 22 -41
59 -109 206 -138 294 -15 45 -31 82 -36 82 -28 0 -24 -356 4 -425 19 -45 19
-48 5 -39 -8 4 -9 -3 -5 -22 23 -120 23 -121 -34 -179 -30 -30 -58 -52 -63
-48 -7 4 -47 87 -47 98 0 2 8 6 17 8 14 4 13 5 -3 6 -12 0 -25 9 -29 18 -52
130 -75 249 -75 397 0 60 -2 107 -4 105 -10 -10 -37 -248 -43 -382 -6 -149 -6
-149 -32 -158 -14 -5 -34 -14 -44 -19 -10 -6 -22 -8 -26 -5 -24 14 -53 239
-46 354 4 70 4 72 -6 31 -6 -27 -9 -131 -6 -260 2 -121 1 -195 -4 -170 -4 25
-8 71 -8 103 -1 71 -13 67 -31 -10 -30 -132 -7 -372 46 -475 49 -96 165 -236
238 -290 21 -15 36 -28 33 -28 -12 0 -83 44 -126 79 -24 19 -42 28 -39 20 5
-16 106 -90 155 -114 l33 -16 -1 -122 c-1 -140 -5 -136 -14 16 -4 59 -10 107
-13 107 -4 0 -6 -60 -4 -134 2 -109 -1 -149 -18 -217 -11 -45 -18 -84 -16 -86
4 -4 18 35 30 82 3 11 4 -4 3 -33 -2 -42 1 -52 14 -52 19 0 36 55 46 153 6 59
7 60 15 27 4 -19 18 -68 30 -108 l22 -72 66 0 c41 0 79 6 99 16 29 14 34 14
56 0 16 -10 47 -16 89 -16 53 0 65 3 69 18 4 16 5 16 6 0 1 -14 10 -18 46 -18
42 0 45 2 45 28 0 15 -28 74 -65 137 -36 60 -65 114 -65 119 0 5 -3 7 -6 4 -3
-4 0 -16 6 -28 11 -20 10 -21 -12 -15 -178 54 -384 200 -423 300 -9 26 -15 49
-12 52 3 3 27 -6 53 -21 51 -28 71 -34 38 -12 -32 23 -98 113 -143 196 -22 41
-41 78 -41 83 0 4 14 0 31 -8 37 -20 43 -16 29 19 -16 44 -11 54 10 19 10 -18
32 -39 48 -47 68 -35 140 54 116 143 l-11 39 41 -26 c23 -14 50 -33 61 -42 55
-46 58 -35 8 22 l-38 43 34 -28 c39 -33 123 -77 145 -77 9 0 31 -13 49 -30 48
-41 51 -38 17 16 -16 26 -44 81 -61 123 -17 42 -49 96 -71 121 -39 43 -63 80
-54 80 2 0 21 -22 42 -50 21 -27 39 -48 41 -46 2 2 -11 58 -28 125 l-32 121
28 30 28 29 57 -62 58 -62 -29 -33 c-40 -45 -36 -53 5 -13 34 33 34 33 61 15
l28 -18 -24 -16 c-13 -8 -37 -27 -53 -41 -26 -23 -28 -28 -15 -42 13 -14 16
-13 39 6 13 12 19 15 13 7 -17 -23 0 -48 21 -31 13 11 17 9 26 -14 5 -14 10
-30 10 -34 0 -5 12 -21 27 -36 26 -25 32 -27 88 -22 33 3 69 7 80 9 17 3 24
-13 57 -142 20 -80 38 -158 39 -175 1 -16 5 -3 9 30 7 68 10 60 33 -70 l13
-80 13 45 c6 25 23 65 36 90 32 62 73 185 94 289 l18 86 7 -73 c4 -39 4 -103
0 -142 -10 -106 9 -85 31 33 14 74 19 148 19 272 l0 170 32 -70 c44 -94 45
-152 3 -230 -17 -31 -28 -59 -26 -61 3 -3 18 7 35 21 39 32 62 101 62 182 0
52 5 73 31 119 30 52 33 55 63 49 41 -9 101 -48 122 -81 30 -45 9 -283 -33
-371 -24 -51 -187 -143 -254 -143 -23 0 -34 -7 -47 -31 -68 -124 -182 -289
-200 -289 -4 0 -20 27 -36 60 -15 33 -34 64 -42 71 -13 11 62 -142 112 -227
26 -44 26 -46 21 -207 -4 -102 -2 -149 3 -127 5 19 10 93 12 165 3 127 2 131
-25 178 l-29 48 61 92 c33 51 79 128 103 172 31 59 48 80 60 77 9 -2 15 -9 13
-15 -15 -43 -36 -250 -36 -354 0 -257 35 -326 186 -376 49 -17 51 -17 99 8 52
26 76 31 91 16 6 -4 22 -11 38 -15 l27 -6 -5 97 -6 98 20 -72 c11 -39 27 -85
36 -102 18 -36 41 -42 30 -8 -27 88 -66 329 -65 397 1 8 22 -30 49 -85 56
-117 141 -268 148 -261 3 2 -21 49 -53 103 -32 54 -77 142 -101 196 -46 105
-52 149 -36 311 l6 69 24 -97 c12 -54 28 -105 34 -114 12 -20 11 -12 -27 128
-30 112 -31 141 -10 325 27 235 34 349 26 401 -4 27 -14 90 -20 139 -13 97
-47 199 -84 256 -13 19 -38 63 -55 96 -37 75 -135 198 -200 252 -84 70 -192
131 -291 161 -52 17 -103 30 -115 29 -11 0 -15 -2 -10 -4z m-531 -866 l27 -40
-23 -19 c-13 -11 -26 -19 -30 -20 -5 0 -8 27 -8 60 0 33 2 60 4 60 2 0 15 -18
30 -41z m321 -92 c30 -80 29 -74 6 -80 -16 -4 -19 3 -24 42 -3 25 -9 62 -13
81 -10 50 2 34 31 -43z m462 1 c-3 -7 -5 -2 -5 12 0 14 2 19 5 13 2 -7 2 -19
0 -25z m-878 -80 c23 -43 39 -78 37 -78 -6 0 -72 117 -82 145 -12 32 0 15 45
-67z m-239 -35 c0 -2 -9 -3 -19 -3 -28 0 -34 15 -26 62 l7 42 19 -50 c11 -27
19 -50 19 -51z m42 -88 l37 -75 -48 0 c-56 0 -57 1 -67 89 -6 60 -6 61 17 61
20 0 31 -13 61 -75z m-142 17 c0 -20 9 -70 20 -110 l20 -73 -27 -24 c-25 -21
-29 -22 -35 -7 -11 28 -9 35 7 22 30 -25 28 1 -2 33 -32 33 -83 126 -83 150 0
15 54 45 83 46 13 1 17 -7 17 -37z m1067 -74 c-2 -13 -4 -3 -4 22 0 25 2 35 4
23 2 -13 2 -33 0 -45z m-276 -28 c18 0 28 -4 24 -10 -10 -16 -61 -11 -76 7
-12 15 -12 16 4 10 10 -4 32 -7 48 -7z m-592 -14 c9 -11 2 -15 -36 -20 -27 -3
-52 -7 -58 -9 -5 -1 -11 8 -13 21 -3 20 0 22 46 22 30 0 54 -5 61 -14z m868
-18 c-3 -7 -5 -2 -5 12 0 14 2 19 5 13 2 -7 2 -19 0 -25z m-1055 -134 c-8 -38
-8 -38 -15 -11 -5 17 -3 32 5 41 18 19 20 15 10 -30z m60 -16 c-6 -6 -7 0 -4
19 5 21 7 23 10 9 2 -10 0 -22 -6 -28z m118 -38 c0 -5 -7 -10 -15 -10 -8 0
-15 5 -15 10 0 6 7 10 15 10 8 0 15 -4 15 -10z m219 -740 c0 -23 -1 -23 -8 -5
-5 11 -11 36 -15 55 l-6 35 15 -30 c8 -16 14 -41 14 -55z m38 18 c-3 -8 -6 -5
-6 6 -1 11 2 17 5 13 3 -3 4 -12 1 -19z"/>
<path d="M908 2323 c7 -3 16 -2 19 1 4 3 -2 6 -13 5 -11 0 -14 -3 -6 -6z"/>
<path d="M770 2280 c-8 -5 -10 -10 -5 -10 6 0 17 5 25 10 8 5 11 10 5 10 -5 0
-17 -5 -25 -10z"/>
<path d="M767 2241 c-33 -16 -64 -34 -70 -41 -13 -12 122 48 138 62 17 16 -9
7 -68 -21z"/>
<path d="M675 2240 c-3 -6 1 -7 9 -4 18 7 21 14 7 14 -6 0 -13 -4 -16 -10z"/>
<path d="M371 2004 c-68 -71 -91 -105 -136 -198 -100 -206 -132 -370 -122
-640 6 -167 19 -242 60 -361 50 -142 96 -222 180 -315 48 -53 62 -59 28 -12
-36 52 -120 242 -107 242 3 0 20 -28 38 -63 21 -40 62 -91 117 -144 84 -83
137 -117 70 -46 -50 53 -89 107 -93 130 -6 28 -70 117 -74 103 -2 -6 17 -46
42 -88 44 -74 44 -75 11 -37 -118 135 -204 438 -206 731 -1 100 -3 113 -11 79
-14 -56 -2 -271 22 -385 32 -158 86 -344 119 -417 30 -64 30 -66 7 -38 -41 48
-104 176 -136 274 -44 136 -63 296 -57 476 8 216 36 332 124 513 45 93 68 127
135 197 44 47 78 85 75 85 -3 0 -41 -39 -86 -86z"/>
<path d="M552 1866 c-7 -15 -12 -37 -11 -49 0 -16 5 -10 15 17 17 47 14 71 -4
32z"/>
<path d="M392 1829 c-29 -75 -42 -123 -41 -152 0 -27 3 -23 15 23 8 30 21 75
29 99 16 46 12 72 -3 30z"/>
<path d="M1941 1280 c-7 -25 -30 -76 -51 -115 -34 -62 -37 -76 -33 -121 5 -46
3 -53 -23 -77 -15 -15 -40 -29 -55 -32 -26 -6 -49 -40 -49 -73 1 -10 8 -2 18
18 16 31 23 36 92 51 66 15 79 22 117 63 24 24 43 51 43 58 0 7 -13 21 -30 30
-28 16 -29 16 -35 -2 -3 -10 -12 -21 -20 -24 -8 -3 -15 -11 -15 -18 0 -6 12 0
28 14 21 21 30 24 44 15 15 -10 15 -13 -3 -39 -19 -26 -48 -41 -33 -17 4 7 -2
7 -17 -1 -34 -18 -38 -24 -10 -15 16 5 21 4 17 -4 -4 -6 -15 -11 -25 -11 -15
0 -20 11 -26 55 -5 47 -3 63 16 98 12 23 30 57 39 76 14 27 18 30 23 16 14
-34 7 -64 -19 -84 -16 -13 -21 -21 -12 -21 8 0 24 9 37 21 18 17 21 27 15 52
-4 18 -10 55 -13 82 l-6 50 -14 -45z"/>
<path d="M800 759 c0 -8 7 -23 15 -33 11 -14 15 -16 15 -5 0 8 -7 23 -15 33
-11 14 -15 16 -15 5z"/>
<path d="M1362 640 c13 -27 86 -230 95 -267 3 -13 10 -23 15 -23 6 0 7 8 3 18
-3 9 -25 70 -47 135 -23 65 -49 128 -60 140 l-19 22 13 -25z"/>
<path d="M1324 637 c-12 -13 11 -134 41 -217 9 -25 23 -88 31 -140 8 -52 19
-99 24 -104 17 -17 11 -26 -17 -27 -16 -1 -39 -5 -53 -10 -19 -7 -15 -8 21 -5
45 3 47 2 57 -28 9 -27 10 -25 7 24 -5 73 -24 164 -79 378 -15 57 -24 112 -21
123 7 22 5 23 -11 6z"/>
<path d="M1272 584 c-10 -20 -9 -29 0 -43 11 -16 13 -13 14 25 0 24 0 44 -1
44 -1 0 -7 -12 -13 -26z"/>
<path d="M1253 485 c0 -33 2 -45 4 -27 2 18 2 45 0 60 -2 15 -4 0 -4 -33z"/>
<path d="M2260 523 c-1 -15 114 -342 118 -338 5 4 -108 345 -114 345 -2 0 -4
-3 -4 -7z"/>
<path d="M1120 368 c29 -42 59 -83 68 -90 18 -14 -55 92 -95 138 -13 16 -1 -6
27 -48z"/>
<path d="M1262 390 c0 -14 2 -19 5 -12 2 6 2 18 0 25 -3 6 -5 1 -5 -13z"/>
<path d="M1042 360 c0 -14 2 -19 5 -12 2 6 2 18 0 25 -3 6 -5 1 -5 -13z"/>
<path d="M1474 308 c3 -13 11 -59 18 -103 6 -44 18 -89 26 -100 8 -11 12 -13
10 -5 -3 8 -14 63 -24 123 -10 59 -22 107 -27 107 -5 0 -7 -10 -3 -22z"/>
<path d="M1291 285 c-1 -5 -15 -18 -33 -28 -25 -14 -33 -15 -39 -5 -5 7 -9 8
-9 3 0 -13 86 -166 102 -180 7 -7 8 -3 3 15 -4 14 -12 27 -17 28 -4 2 -15 16
-23 31 -10 21 -11 31 -2 40 18 18 30 13 24 -10 -6 -23 1 -49 13 -49 5 0 6 19
3 43 -7 57 -21 124 -22 112z m-24 -52 c-9 -9 -20 -13 -24 -9 -4 4 -1 11 7 16
25 16 35 11 17 -7z"/>
<path d="M920 10 c0 -6 7 -10 15 -10 8 0 15 2 15 4 0 2 -7 6 -15 10 -8 3 -15
1 -15 -4z"/>
<path d="M2080 10 c0 -5 5 -10 11 -10 5 0 7 5 4 10 -3 6 -8 10 -11 10 -2 0 -4
-4 -4 -10z"/>
<path d="M653 3 c9 -2 23 -2 30 0 6 3 -1 5 -18 5 -16 0 -22 -2 -12 -5z"/>
</g>
</svg>
